<svg id="visual" viewBox="0 0 3000 400" width="3000" height="400" xmlns="http://www.w3.org/2000/svg" xmlns:xlink="http://www.w3.org/1999/xlink" version="1.1"><g stroke-width="1" stroke-linejoin="bevel"><path d="M1536 201.7L1479 92.3L1424 288.7Z" fill="#15384f" stroke="#15384f"></path><path d="M1479 92.3L1289 154.3L1424 288.7Z" fill="#19435d" stroke="#19435d"></path><path d="M1289 154.3L1261 198.7L1424 288.7Z" fill="#112e42" stroke="#112e42"></path><path d="M1479 92.3L1381 0L1289 154.3Z" fill="#0c2435" stroke="#0c2435"></path><path d="M1289 154.3L1146 160.3L1261 198.7Z" fill="#081a28" stroke="#081a28"></path><path d="M1596 0L1512 0L1479 92.3Z" fill="#246688" stroke="#246688"></path><path d="M1479 92.3L1512 0L1381 0Z" fill="#00101c" stroke="#00101c"></path><path d="M1226 400L1427 400L1424 288.7Z" fill="#1d4e6b" stroke="#1d4e6b"></path><path d="M1424 288.7L1514 400L1536 201.7Z" fill="#277297" stroke="#277297"></path><path d="M1427 400L1514 400L1424 288.7Z" fill="#1d4e6b" stroke="#1d4e6b"></path><path d="M1536 201.7L1596 0L1479 92.3Z" fill="#15384f" stroke="#15384f"></path><path d="M1713 131.3L1596 0L1536 201.7Z" fill="#00101c" stroke="#00101c"></path><path d="M1514 400L1680 280.7L1536 201.7Z" fill="#277297" stroke="#277297"></path><path d="M1680 280.7L1713 131.3L1536 201.7Z" fill="#00101c" stroke="#00101c"></path><path d="M1190 0L1146 160.3L1289 154.3Z" fill="#15384f" stroke="#15384f"></path><path d="M1261 198.7L1226 400L1424 288.7Z" fill="#19435d" stroke="#19435d"></path><path d="M1124 400L1226 400L1261 198.7Z" fill="#19435d" stroke="#19435d"></path><path d="M1381 0L1190 0L1289 154.3Z" fill="#15384f" stroke="#15384f"></path><path d="M1514 400L1690 400L1680 280.7Z" fill="#081a28" stroke="#081a28"></path><path d="M1838 215.7L1790 115.3L1713 131.3Z" fill="#081a28" stroke="#081a28"></path><path d="M1838 215.7L1713 131.3L1680 280.7Z" fill="#0c2435" stroke="#0c2435"></path><path d="M1713 131.3L1836 0L1596 0Z" fill="#081a28" stroke="#081a28"></path><path d="M1146 160.3L1124 400L1261 198.7Z" fill="#112e42" stroke="#112e42"></path><path d="M1003 174.3L1035 215.7L1146 160.3Z" fill="#205a7a" stroke="#205a7a"></path><path d="M1146 160.3L1035 215.7L1124 400Z" fill="#297ea6" stroke="#297ea6"></path><path d="M1845 400L1838 215.7L1680 280.7Z" fill="#205a7a" stroke="#205a7a"></path><path d="M979 0L1003 174.3L1146 160.3Z" fill="#112e42" stroke="#112e42"></path><path d="M1035 215.7L928 400L1124 400Z" fill="#205a7a" stroke="#205a7a"></path><path d="M1917 0L1836 0L1790 115.3Z" fill="#00101c" stroke="#00101c"></path><path d="M1790 115.3L1836 0L1713 131.3Z" fill="#246688" stroke="#246688"></path><path d="M1690 400L1845 400L1680 280.7Z" fill="#0c2435" stroke="#0c2435"></path><path d="M1838 215.7L1943 205.7L1790 115.3Z" fill="#246688" stroke="#246688"></path><path d="M1845 400L1872 400L1838 215.7Z" fill="#081a28" stroke="#081a28"></path><path d="M1190 0L979 0L1146 160.3Z" fill="#0c2435" stroke="#0c2435"></path><path d="M1872 400L1943 205.7L1838 215.7Z" fill="#112e42" stroke="#112e42"></path><path d="M947 0L917 194.7L1003 174.3Z" fill="#277297" stroke="#277297"></path><path d="M1003 174.3L917 194.7L1035 215.7Z" fill="#0c2435" stroke="#0c2435"></path><path d="M1982 98.3L1917 0L1790 115.3Z" fill="#19435d" stroke="#19435d"></path><path d="M979 0L947 0L1003 174.3Z" fill="#081a28" stroke="#081a28"></path><path d="M917 194.7L928 400L1035 215.7Z" fill="#00101c" stroke="#00101c"></path><path d="M1943 205.7L1982 98.3L1790 115.3Z" fill="#15384f" stroke="#15384f"></path><path d="M947 0L830 54.3L917 194.7Z" fill="#112e42" stroke="#112e42"></path><path d="M917 194.7L674 340.7L928 400Z" fill="#00101c" stroke="#00101c"></path><path d="M2101 400L2121 247.7L1943 205.7Z" fill="#297ea6" stroke="#297ea6"></path><path d="M1943 205.7L2121 247.7L1982 98.3Z" fill="#19435d" stroke="#19435d"></path><path d="M1982 98.3L2106 0L1917 0Z" fill="#00101c" stroke="#00101c"></path><path d="M2121 247.7L2114 54.3L1982 98.3Z" fill="#246688" stroke="#246688"></path><path d="M2114 54.3L2106 0L1982 98.3Z" fill="#277297" stroke="#277297"></path><path d="M1872 400L2101 400L1943 205.7Z" fill="#15384f" stroke="#15384f"></path><path d="M830 54.3L730 173.3L917 194.7Z" fill="#081a28" stroke="#081a28"></path><path d="M2247 263.7L2180 202.3L2121 247.7Z" fill="#246688" stroke="#246688"></path><path d="M2121 247.7L2180 202.3L2114 54.3Z" fill="#1d4e6b" stroke="#1d4e6b"></path><path d="M2114 54.3L2268 0L2106 0Z" fill="#00101c" stroke="#00101c"></path><path d="M947 0L698 0L830 54.3Z" fill="#1d4e6b" stroke="#1d4e6b"></path><path d="M830 54.3L698 0L730 173.3Z" fill="#112e42" stroke="#112e42"></path><path d="M673 340.7L674 340.7L730 173.3Z" fill="#277297" stroke="#277297"></path><path d="M730 173.3L674 340.7L917 194.7Z" fill="#297ea6" stroke="#297ea6"></path><path d="M593 173.3L673 340.7L730 173.3Z" fill="#297ea6" stroke="#297ea6"></path><path d="M674 340.7L677 400L928 400Z" fill="#277297" stroke="#277297"></path><path d="M673 340.7L677 400L674 340.7Z" fill="#205a7a" stroke="#205a7a"></path><path d="M698 0L668 0L730 173.3Z" fill="#205a7a" stroke="#205a7a"></path><path d="M2101 400L2214 400L2121 247.7Z" fill="#277297" stroke="#277297"></path><path d="M2214 400L2247 263.7L2121 247.7Z" fill="#1d4e6b" stroke="#1d4e6b"></path><path d="M2180 202.3L2268 0L2114 54.3Z" fill="#15384f" stroke="#15384f"></path><path d="M490 400L637 400L673 340.7Z" fill="#1d4e6b" stroke="#1d4e6b"></path><path d="M673 340.7L637 400L677 400Z" fill="#19435d" stroke="#19435d"></path><path d="M668 0L593 173.3L730 173.3Z" fill="#19435d" stroke="#19435d"></path><path d="M2247 263.7L2268 0L2180 202.3Z" fill="#246688" stroke="#246688"></path><path d="M2214 400L2359 400L2247 263.7Z" fill="#112e42" stroke="#112e42"></path><path d="M2464 138.3L2416 0L2268 0Z" fill="#00101c" stroke="#00101c"></path><path d="M593 173.3L490 400L673 340.7Z" fill="#112e42" stroke="#112e42"></path><path d="M400 227.7L490 400L593 173.3Z" fill="#205a7a" stroke="#205a7a"></path><path d="M395 0L435 161.3L593 173.3Z" fill="#15384f" stroke="#15384f"></path><path d="M2464 138.3L2268 0L2247 263.7Z" fill="#19435d" stroke="#19435d"></path><path d="M2359 400L2446 208.7L2247 263.7Z" fill="#00101c" stroke="#00101c"></path><path d="M2446 208.7L2464 138.3L2247 263.7Z" fill="#15384f" stroke="#15384f"></path><path d="M435 161.3L400 227.7L593 173.3Z" fill="#1d4e6b" stroke="#1d4e6b"></path><path d="M668 0L395 0L593 173.3Z" fill="#297ea6" stroke="#297ea6"></path><path d="M435 161.3L336 97.3L400 227.7Z" fill="#19435d" stroke="#19435d"></path><path d="M336 97.3L365 279.7L400 227.7Z" fill="#1d4e6b" stroke="#1d4e6b"></path><path d="M400 227.7L365 279.7L490 400Z" fill="#19435d" stroke="#19435d"></path><path d="M365 279.7L367 400L490 400Z" fill="#112e42" stroke="#112e42"></path><path d="M395 0L336 97.3L435 161.3Z" fill="#00101c" stroke="#00101c"></path><path d="M365 279.7L89 400L367 400Z" fill="#297ea6" stroke="#297ea6"></path><path d="M2589 400L2559 200.7L2446 208.7Z" fill="#277297" stroke="#277297"></path><path d="M2446 208.7L2559 200.7L2464 138.3Z" fill="#0c2435" stroke="#0c2435"></path><path d="M2464 138.3L2602 0L2416 0Z" fill="#112e42" stroke="#112e42"></path><path d="M2559 200.7L2578 157.3L2464 138.3Z" fill="#1d4e6b" stroke="#1d4e6b"></path><path d="M2359 400L2589 400L2446 208.7Z" fill="#19435d" stroke="#19435d"></path><path d="M2559 200.7L2729 176.3L2578 157.3Z" fill="#19435d" stroke="#19435d"></path><path d="M2658 0L2602 0L2578 157.3Z" fill="#277297" stroke="#277297"></path><path d="M2578 157.3L2602 0L2464 138.3Z" fill="#297ea6" stroke="#297ea6"></path><path d="M395 0L241 0L336 97.3Z" fill="#277297" stroke="#277297"></path><path d="M336 97.3L115 187.7L365 279.7Z" fill="#205a7a" stroke="#205a7a"></path><path d="M2729 176.3L2658 0L2578 157.3Z" fill="#297ea6" stroke="#297ea6"></path><path d="M2589 400L2659 400L2559 200.7Z" fill="#277297" stroke="#277297"></path><path d="M241 0L134 61.3L336 97.3Z" fill="#1d4e6b" stroke="#1d4e6b"></path><path d="M2752 215.7L2729 176.3L2559 200.7Z" fill="#277297" stroke="#277297"></path><path d="M179 0L134 61.3L241 0Z" fill="#0c2435" stroke="#0c2435"></path><path d="M134 61.3L115 187.7L336 97.3Z" fill="#081a28" stroke="#081a28"></path><path d="M2659 400L2752 215.7L2559 200.7Z" fill="#297ea6" stroke="#297ea6"></path><path d="M2729 176.3L2803 0L2658 0Z" fill="#112e42" stroke="#112e42"></path><path d="M115 187.7L89 400L365 279.7Z" fill="#1d4e6b" stroke="#1d4e6b"></path><path d="M2848 167.3L2803 0L2729 176.3Z" fill="#0c2435" stroke="#0c2435"></path><path d="M2752 215.7L2848 167.3L2729 176.3Z" fill="#00101c" stroke="#00101c"></path><path d="M2900 242.7L2848 167.3L2752 215.7Z" fill="#112e42" stroke="#112e42"></path><path d="M0 0L0 156.3L134 61.3Z" fill="#00101c" stroke="#00101c"></path><path d="M134 61.3L0 156.3L115 187.7Z" fill="#205a7a" stroke="#205a7a"></path><path d="M115 187.7L0 341.7L89 400Z" fill="#277297" stroke="#277297"></path><path d="M0 156.3L0 341.7L115 187.7Z" fill="#15384f" stroke="#15384f"></path><path d="M179 0L0 0L134 61.3Z" fill="#00101c" stroke="#00101c"></path><path d="M0 341.7L0 400L89 400Z" fill="#0c2435" stroke="#0c2435"></path><path d="M2886 400L2900 242.7L2752 215.7Z" fill="#15384f" stroke="#15384f"></path><path d="M2848 167.3L3000 123.3L2803 0Z" fill="#1d4e6b" stroke="#1d4e6b"></path><path d="M2659 400L2886 400L2752 215.7Z" fill="#112e42" stroke="#112e42"></path><path d="M3000 400L3000 219.7L2900 242.7Z" fill="#081a28" stroke="#081a28"></path><path d="M2900 242.7L3000 123.3L2848 167.3Z" fill="#15384f" stroke="#15384f"></path><path d="M3000 219.7L3000 123.3L2900 242.7Z" fill="#0c2435" stroke="#0c2435"></path><path d="M3000 123.3L3000 0L2803 0Z" fill="#081a28" stroke="#081a28"></path><path d="M2886 400L3000 400L2900 242.7Z" fill="#112e42" stroke="#112e42"></path></g></svg>